<?xml version="1.0" encoding="UTF-8" standalone="no"?>
<!-- Created with Inkscape (http://www.inkscape.org/) -->

<svg
   xmlns:dc="http://purl.org/dc/elements/1.1/"
   xmlns:cc="http://creativecommons.org/ns#"
   xmlns:rdf="http://www.w3.org/1999/02/22-rdf-syntax-ns#"
   xmlns:svg="http://www.w3.org/2000/svg"
   xmlns="http://www.w3.org/2000/svg"
   xmlns:sodipodi="http://sodipodi.sourceforge.net/DTD/sodipodi-0.dtd"
   xmlns:inkscape="http://www.inkscape.org/namespaces/inkscape"
   width="185.91866mm"
   height="61.069328mm"
   viewBox="0 0 185.91866 61.069328"
   version="1.1"
   id="svg8"
   inkscape:version="0.91 r13725"
   sodipodi:docname="linear-stretch.svg"
   inkscape:export-filename="/home/rdesmond/code/DeepCore-Dev/gbdxm/doc/linear-stretch.png"
   inkscape:export-xdpi="90"
   inkscape:export-ydpi="90">
  <defs
     id="defs2">
    <marker
       inkscape:isstock="true"
       style="overflow:visible"
       id="marker5362"
       refX="0"
       refY="0"
       orient="auto"
       inkscape:stockid="Arrow1Mend">
      <path
         transform="matrix(-0.4,0,0,-0.4,-4,0)"
         style="fill:#000000;fill-opacity:1;fill-rule:evenodd;stroke:#000000;stroke-width:1pt;stroke-opacity:1"
         d="M 0,0 5,-5 -12.5,0 5,5 0,0 Z"
         id="path5360"
         inkscape:connector-curvature="0" />
    </marker>
    <marker
       inkscape:stockid="Arrow1Mend"
       orient="auto"
       refY="0"
       refX="0"
       id="marker5208"
       style="overflow:visible"
       inkscape:isstock="true"
       inkscape:collect="always">
      <path
         id="path5206"
         d="M 0,0 5,-5 -12.5,0 5,5 0,0 Z"
         style="fill:#000000;fill-opacity:1;fill-rule:evenodd;stroke:#000000;stroke-width:1pt;stroke-opacity:1"
         transform="matrix(-0.4,0,0,-0.4,-4,0)"
         inkscape:connector-curvature="0" />
    </marker>
    <marker
       inkscape:stockid="Arrow1Mend"
       orient="auto"
       refY="0"
       refX="0"
       id="Arrow1Mend"
       style="overflow:visible"
       inkscape:isstock="true">
      <path
         id="path4601"
         d="M 0,0 5,-5 -12.5,0 5,5 0,0 Z"
         style="fill:#000000;fill-opacity:1;fill-rule:evenodd;stroke:#000000;stroke-width:1pt;stroke-opacity:1"
         transform="matrix(-0.4,0,0,-0.4,-4,0)"
         inkscape:connector-curvature="0" />
    </marker>
  </defs>
  <sodipodi:namedview
     id="base"
     pagecolor="#ffffff"
     bordercolor="#666666"
     borderopacity="1.0"
     inkscape:pageopacity="1"
     inkscape:pageshadow="2"
     inkscape:zoom="1.041719"
     inkscape:cx="287.25071"
     inkscape:cy="165.76658"
     inkscape:document-units="mm"
     inkscape:current-layer="layer1"
     showgrid="false"
     inkscape:snap-nodes="false"
     inkscape:snap-global="false"
     inkscape:window-width="1805"
     inkscape:window-height="778"
     inkscape:window-x="57"
     inkscape:window-y="21"
     inkscape:window-maximized="0"
     fit-margin-top="0"
     fit-margin-left="0"
     fit-margin-right="0"
     fit-margin-bottom="0" />
  <metadata
     id="metadata5">
    <rdf:RDF>
      <cc:Work
         rdf:about="">
        <dc:format>image/svg+xml</dc:format>
        <dc:type
           rdf:resource="http://purl.org/dc/dcmitype/StillImage" />
        <dc:title></dc:title>
      </cc:Work>
    </rdf:RDF>
  </metadata>
  <g
     inkscape:label="Layer 1"
     inkscape:groupmode="layer"
     id="layer1"
     transform="translate(-11.112497,-90.583662)">
    <path
       inkscape:connector-curvature="0"
       id="path4586"
       d="m 40.342903,143.30607 c 0.458529,-0.68684 0.459349,0.71419 0.724457,-0.48849 0.269561,0.0602 0.574392,-0.49456 0.905573,-0.97698 0.469206,-0.2274 0.509388,-1.51741 0.900264,-1.04092 -0.499403,-0.0673 0.421555,-0.27246 0.07308,-0.82892 0.437837,0.2738 0.05945,-0.4827 0.413404,-0.70122 -0.242796,0.35066 0.158351,-0.47797 0.26179,-0.56084 0.08755,-0.80735 0.09536,0.0408 0.178097,-1.11916 0.159927,0.91764 0.397983,-1.53557 0.713705,-1.71529 0.382133,-1.25892 0.57783,-2.47597 0.900833,-3.80357 0.170413,-1.02948 0.385803,-1.86531 0.586525,-2.8112 0.003,-0.993 0.605363,-0.62475 0.299236,-1.51657 0.191204,-0.0274 0.26237,0.46872 0.242647,-0.31095 0.169827,0.57014 0.09195,-0.76435 0.139392,-0.002 0.249989,-0.64646 0.515258,-1.00309 0.640531,-0.68957 0.101914,-0.56708 0.157502,-0.0998 0.567842,-0.4477 0.124827,0.13919 1.036862,-0.48223 1.236673,-0.32821 0.175925,-0.52066 0.216711,-0.13632 0.181114,-1.22124 0.316749,-0.75821 0.304817,-2.88447 0.724459,-4.15221 -0.03629,-1.5483 0.436931,-3.38013 0.366276,-4.94717 0.510598,-0.35861 0.04556,-3.15024 0.418388,-3.55251 0.04475,-1.72153 0.08626,-3.27952 0.391999,-4.91604 -0.03943,-1.87495 0.301877,-2.77784 0.36281,-3.92585 0.240065,-0.34773 0.264251,-0.52131 0.362227,-0.48849 0.433274,0.004 0.165183,-0.10082 0.537684,0.3053 -0.11416,0.26216 0.266807,0.54009 0.192435,0.85486 0.288976,0.31666 -9.15e-4,0.57582 0.356569,0.54956 -0.08343,0.8698 0.151816,-0.26667 0,0.73275 0.102007,-0.67089 0.922613,0.19921 1.177246,-0.48851 0.408285,-0.70296 0.413235,-0.96035 0.633899,-1.95396 0.122244,0.0376 0.289591,-1.74892 0.362229,-1.22125 0.118088,-0.56266 0.322953,-1.36285 0.543344,-1.46549 0.07463,-0.696339 0.397747,-1.048233 0.6339,-0.976984 0.30817,1.018504 0.302408,1.771104 0.506069,2.451394 -0.05628,1.41682 0.286562,3.17159 0.212559,5.04787 0.192058,1.45676 0.0866,2.8405 0.09639,4.47311 -0.05063,1.42485 0.156267,2.19383 0.09056,3.66229 -0.02505,1.418 0.147342,2.71409 0.09055,4.15362 -0.01782,1.89977 0.221903,4.00988 0.08232,5.73285 0.04791,1.28119 -0.09811,1.84948 0.189351,2.07884 -0.267582,0.46425 0.116951,2.59268 -3.43e-4,4.02824 0.0278,1.56534 0.428613,-0.57536 0.402793,-0.12354 0.0681,-0.46921 0.41514,-0.8554 0.3474,-1.60433 0.32481,-1.22794 0.44899,-2.45867 0.69907,-4.01015 0.21875,-1.14455 0.31075,-1.7106 0.45572,-2.80316 0.21608,-1.74404 0.2113,-2.23784 0.4984,-3.66611 0.18361,-1.79254 0.45122,-4.18458 0.67591,-6.2316 0.10052,-1.19446 0.36615,-2.6098 0.49594,-3.67168 0.15417,-0.5539 0.44877,0.0399 0.39831,0.89336 0.199,0.0259 0.20832,1.35317 0.29431,1.95398 -0.0547,0.27398 0.15569,0.96923 0.0792,1.88368 0.006,0.73396 -0.0141,0.27479 0.0113,1.29155 0.0454,0.13362 0.11555,1.18018 0.30167,2.33883 -0.21398,0.2929 0.46191,2.65254 0.22898,2.67388 0.41199,-1.12613 -0.26172,2.60169 0.3636,1.42932 -0.12103,1.70742 0.19907,0.25037 0.27167,1.70972 -0.0612,-0.21308 0.15697,1.43272 0.12452,1.33071 0.0243,0.45828 0.11246,0.40166 0.14716,1.11177 0.002,0.23801 0.0535,1.8084 0.0906,2.93098 0.16528,1.18969 0.0573,2.11715 0.18111,3.90795 0.25828,0.44582 -0.0744,0.52763 0.18112,0.977 0.0499,1.72549 0.31534,3.6784 0.54334,5.37344 -0.0423,0.58487 0.15687,0.93294 0.19063,1.10189 0.073,0.29847 0.0913,0.93016 0.26215,0.85209 0.1784,1.36255 -0.10377,-0.71148 0.18112,0.73274 -0.10699,-0.23131 0.15593,0.40964 0.13584,0.61063 0.12092,0.29775 0.0853,0.31203 0.13583,0.85486 0.0388,0.66375 0.17954,-0.64721 0.0906,-0.48849"
       style="fill:none;stroke:#ce0000;stroke-width:0.35277778;stroke-linecap:butt;stroke-linejoin:miter;stroke-miterlimit:4;stroke-dasharray:0.70555558, 1.41111115;stroke-dashoffset:0;stroke-opacity:1" />
    <path
       style="fill:none;stroke:#000000;stroke-width:0.26458332px;stroke-linecap:butt;stroke-linejoin:miter;stroke-opacity:1"
       d="m 11.112497,143.62776 86.964493,0"
       id="path10"
       inkscape:connector-curvature="0" />
    <path
       style="fill:none;stroke:#00ff00;stroke-width:0.35277778;stroke-linecap:butt;stroke-linejoin:miter;stroke-miterlimit:4;stroke-dasharray:2.82222222, 1.41111111;stroke-dashoffset:0;stroke-opacity:1"
       d="m 22.287518,143.30607 c 1.203914,-0.68684 1.206066,0.71419 1.902128,-0.48849 0.707759,0.0602 1.508121,-0.49456 2.377665,-0.97698 1.231947,-0.2274 1.33745,-1.51741 2.363731,-1.04092 -1.311231,-0.0673 1.106831,-0.27246 0.191887,-0.82892 1.14958,0.2738 0.156093,-0.4827 1.085426,-0.70122 -0.637479,0.35066 0.415764,-0.47797 0.687355,-0.56084 0.229875,-0.80735 0.250376,0.0408 0.467609,-1.11916 0.419903,0.91764 1.044941,-1.53557 1.8739,-1.71529 1.003324,-1.25892 1.517146,-2.47597 2.365216,-3.80357 0.447435,-1.02948 1.012961,-1.86531 1.53998,-2.8112 0.0079,-0.993 1.589435,-0.62475 0.785669,-1.51657 0.502024,-0.0274 0.688877,0.46872 0.637092,-0.31095 0.445896,0.57014 0.241433,-0.76435 0.365985,-0.002 0.656367,-0.64646 1.35286,-1.00309 1.681775,-0.68957 0.267595,-0.56708 0.413538,-0.0998 1.490921,-0.4477 0.327742,0.13919 2.722376,-0.48223 3.246997,-0.32821 0.461908,-0.52066 0.568996,-0.13632 0.475531,-1.22124 0.831654,-0.75821 0.800325,-2.88447 1.902133,-4.15221 -0.09529,-1.5483 1.147205,-3.38013 0.961694,-4.94717 1.340623,-0.35861 0.119614,-3.15024 1.098515,-3.55251 0.117505,-1.72153 0.226498,-3.27952 1.029228,-4.91604 -0.103532,-1.87495 0.792608,-2.77784 0.952593,-3.92585 0.630314,-0.34773 0.693817,-0.52131 0.951062,-0.48849 1.137596,0.004 0.433701,-0.10082 1.411739,0.3053 -0.299739,0.26216 0.700527,0.54009 0.505253,0.85486 0.75873,0.31666 -0.0025,0.57582 0.936206,0.54956 -0.219038,0.8698 0.398605,-0.26667 0,0.73275 0.267816,-0.67089 2.422402,0.19921 3.090962,-0.48851 1.072,-0.70296 1.08499,-0.96035 1.66437,-1.95396 0.32096,0.0376 0.76034,-1.74892 0.95106,-1.22125 0.31005,-0.56266 0.84794,-1.36285 1.4266,-1.46549 0.19594,-0.696339 1.04432,-1.048233 1.66436,-0.976984 0.80913,1.018504 0.794,1.771104 1.32873,2.451394 -0.14776,1.41682 0.7524,3.17159 0.5581,5.04787 0.50426,1.45676 0.22737,2.8405 0.25307,4.47311 -0.13291,1.42485 0.4103,2.19383 0.23777,3.66229 -0.0658,1.418 0.38686,2.71409 0.23776,4.15362 -0.0468,1.89977 0.58263,4.00988 0.21615,5.73285 0.12579,1.28119 -0.25762,1.84948 0.49715,2.07884 -0.70256,0.46425 0.30707,2.59268 -9e-4,4.02824 0.073,1.56534 1.12535,-0.57536 1.05756,-0.12354 0.17886,-0.46921 1.09,-0.8554 0.91213,-1.60433 0.85283,-1.22794 1.17886,-2.45867 1.83547,-4.01015 0.57435,-1.14455 0.81592,-1.7106 1.19656,-2.80316 0.56733,-1.74404 0.55477,-2.23784 1.30859,-3.66611 0.48208,-1.79254 1.18472,-4.18458 1.77465,-6.2316 0.26396,-1.19446 0.96136,-2.6098 1.30215,-3.67168 0.40477,-0.5539 1.17827,0.0399 1.04579,0.89336 0.52251,0.0259 0.54698,1.35317 0.77274,1.95398 -0.14349,0.27398 0.40878,0.96923 0.20805,1.88368 0.0153,0.73396 -0.0369,0.27479 0.0297,1.29155 0.11908,0.13362 0.3034,1.18018 0.79207,2.33883 -0.56183,0.2929 1.21277,2.65254 0.60119,2.67388 1.08172,-1.12613 -0.68714,2.60169 0.95468,1.42932 -0.31779,1.70742 0.52267,0.25037 0.7133,1.70972 -0.16068,-0.21308 0.41213,1.43272 0.32694,1.33071 0.0637,0.45828 0.29527,0.40166 0.38636,1.11177 0.006,0.23801 0.14062,1.8084 0.23777,2.93098 0.43397,1.18969 0.15026,2.11715 0.47553,3.90795 0.67815,0.44582 -0.19532,0.52763 0.47553,0.977 0.1311,1.72549 0.82797,3.6784 1.4266,5.37344 -0.11118,0.58487 0.41189,0.93294 0.50052,1.10189 0.19161,0.29847 0.2396,0.93016 0.68831,0.85209 0.46841,1.36255 -0.27246,-0.71148 0.47554,0.73274 -0.2809,-0.23131 0.40942,0.40964 0.35665,0.61063 0.31749,0.29775 0.22404,0.31203 0.35664,0.85486 0.10195,0.66375 0.4714,-0.64721 0.23777,-0.48849"
       id="path67"
       inkscape:connector-curvature="0" />
    <path
       inkscape:connector-curvature="0"
       id="path4588"
       d="m 14.800136,147.50638 0,-49.075521"
       style="fill:none;stroke:#000000;stroke-width:0.26458332px;stroke-linecap:butt;stroke-linejoin:miter;stroke-opacity:1" />
    <path
       style="fill:none;stroke:#000000;stroke-width:0.26499999;stroke-linecap:butt;stroke-linejoin:miter;stroke-miterlimit:4;stroke-dasharray:none;stroke-opacity:1;marker-end:url(#Arrow1Mend)"
       d="m 65.41189,144.52775 c 7.15479,1.80516 13.17752,1.49283 22.23456,-0.0407"
       id="path4590"
       inkscape:connector-curvature="0"
       sodipodi:nodetypes="cc" />
    <path
       style="fill:none;stroke:#000000;stroke-width:0.26458332px;stroke-linecap:butt;stroke-linejoin:miter;stroke-opacity:1;marker-end:url(#marker5208)"
       d="m 39.562614,145.01581 c -7.006433,0.84208 -9.667677,1.5021 -14.712333,-0.24425"
       id="path5204"
       inkscape:connector-curvature="0"
       sodipodi:nodetypes="cc" />
    <text
       xml:space="preserve"
       style="font-style:normal;font-variant:normal;font-weight:normal;font-stretch:normal;font-size:4.23333311px;line-height:1.25;font-family:sans-serif;-inkscape-font-specification:'sans-serif, Normal';text-align:start;letter-spacing:0px;word-spacing:0px;writing-mode:lr-tb;text-anchor:start;fill:#000000;fill-opacity:1;stroke:none;stroke-width:0.26458332"
       x="58.968002"
       y="149.59627"
       id="text5284"><tspan
         sodipodi:role="line"
         id="tspan5282"
         x="58.968002"
         y="149.59627"
         style="font-style:normal;font-variant:normal;font-weight:normal;font-stretch:normal;font-size:4.23333311px;font-family:sans-serif;-inkscape-font-specification:'sans-serif, Normal';text-align:start;writing-mode:lr-tb;text-anchor:start;stroke-width:0.26458332">bp1_in</tspan></text>
    <text
       id="text5302"
       y="149.59627"
       x="82.738289"
       style="font-style:normal;font-variant:normal;font-weight:normal;font-stretch:normal;font-size:4.23333311px;line-height:1.25;font-family:sans-serif;-inkscape-font-specification:'sans-serif, Normal';text-align:start;letter-spacing:0px;word-spacing:0px;writing-mode:lr-tb;text-anchor:start;fill:#000000;fill-opacity:1;stroke:none;stroke-width:0.26458332"
       xml:space="preserve"><tspan
         style="font-style:normal;font-variant:normal;font-weight:normal;font-stretch:normal;font-size:4.23333311px;font-family:sans-serif;-inkscape-font-specification:'sans-serif, Normal';text-align:start;writing-mode:lr-tb;text-anchor:start;stroke-width:0.26458332"
         y="149.59627"
         x="82.738289"
         id="tspan5300"
         sodipodi:role="line">bp1_out</tspan></text>
    <text
       id="text5306"
       y="149.59627"
       x="37.585434"
       style="font-style:normal;font-variant:normal;font-weight:normal;font-stretch:normal;font-size:4.23333311px;line-height:1.25;font-family:sans-serif;-inkscape-font-specification:'sans-serif, Normal';text-align:start;letter-spacing:0px;word-spacing:0px;writing-mode:lr-tb;text-anchor:start;fill:#000000;fill-opacity:1;stroke:none;stroke-width:0.26458332"
       xml:space="preserve"><tspan
         style="font-style:normal;font-variant:normal;font-weight:normal;font-stretch:normal;font-size:4.23333311px;font-family:sans-serif;-inkscape-font-specification:'sans-serif, Normal';text-align:start;writing-mode:lr-tb;text-anchor:start;stroke-width:0.26458332"
         y="149.59627"
         x="37.585434"
         id="tspan5304"
         sodipodi:role="line">bp0_in</tspan></text>
    <text
       xml:space="preserve"
       style="font-style:normal;font-variant:normal;font-weight:normal;font-stretch:normal;font-size:4.23333311px;line-height:1.25;font-family:sans-serif;-inkscape-font-specification:'sans-serif, Normal';text-align:start;letter-spacing:0px;word-spacing:0px;writing-mode:lr-tb;text-anchor:start;fill:#000000;fill-opacity:1;stroke:none;stroke-width:0.26458332"
       x="15.753248"
       y="149.59627"
       id="text5310"><tspan
         sodipodi:role="line"
         id="tspan5308"
         x="15.753248"
         y="149.59627"
         style="font-style:normal;font-variant:normal;font-weight:normal;font-stretch:normal;font-size:4.23333311px;font-family:sans-serif;-inkscape-font-specification:'sans-serif, Normal';text-align:start;writing-mode:lr-tb;text-anchor:start;stroke-width:0.26458332">bp0_out</tspan></text>
    <path
       style="fill:none;stroke:#ce0000;stroke-width:0.35277778;stroke-linecap:butt;stroke-linejoin:miter;stroke-miterlimit:4;stroke-dasharray:0.70555558, 1.41111115;stroke-dashoffset:0;stroke-opacity:1"
       d="m 128.70591,143.30607 c 0.65185,-0.68684 0.65301,0.71419 1.02989,-0.48849 0.38321,0.0602 0.81656,-0.49456 1.28737,-0.97698 0.66703,-0.2274 0.72415,-1.51741 1.27983,-1.04092 -0.70996,-0.0673 0.59928,-0.27246 0.1039,-0.82892 0.62243,0.2738 0.0845,-0.4827 0.58769,-0.70122 -0.34516,0.35066 0.22512,-0.47797 0.37217,-0.56084 0.12446,-0.80735 0.13556,0.0408 0.25318,-1.11916 0.22736,0.91764 0.56578,-1.53557 1.01461,-1.71529 0.54324,-1.25892 0.82145,-2.47597 1.28063,-3.80357 0.24226,-1.02948 0.54847,-1.86531 0.83381,-2.8112 0.004,-0.993 0.86059,-0.62475 0.4254,-1.51657 0.27182,-0.0274 0.37299,0.46872 0.34495,-0.31095 0.24143,0.57014 0.13072,-0.76435 0.19816,-0.002 0.35539,-0.64646 0.7325,-1.00309 0.91059,-0.68957 0.14488,-0.56708 0.2239,-0.0998 0.80725,-0.4477 0.17745,0.13919 1.47401,-0.48223 1.75806,-0.32821 0.2501,-0.52066 0.30808,-0.13632 0.25747,-1.22124 0.4503,-0.75821 0.43333,-2.88447 1.0299,-4.15221 -0.0516,-1.5483 0.62115,-3.38013 0.5207,-4.94717 0.72588,-0.3586 0.0648,-3.15023 0.59479,-3.55251 0.0636,-1.72153 0.12263,-3.27952 0.55727,-4.91603 -0.0561,-1.87496 0.42915,-2.77785 0.51577,-3.92586 0.34128,-0.34772 0.37566,-0.52131 0.51495,-0.48849 0.61594,0.005 0.23482,-0.10082 0.76437,0.30531 -0.16229,0.26215 0.3793,0.54009 0.27357,0.85486 0.41081,0.31665 -0.001,0.57581 0.5069,0.54955 -0.1186,0.8698 0.21583,-0.26667 0,0.73275 0.14502,-0.67089 1.3116,0.19921 1.67359,-0.4885 0.58042,-0.70296 0.58746,-0.96036 0.90115,-1.95397 0.17379,0.0376 0.41169,-1.74892 0.51495,-1.22125 0.16788,-0.56266 0.45911,-1.36285 0.77242,-1.46549 0.1061,-0.696341 0.56545,-1.048231 0.90116,-0.976981 0.4381,1.018501 0.42991,1.771101 0.71944,2.451401 -0.08,1.41681 0.40738,3.17158 0.30217,5.04786 0.27303,1.45677 0.12312,2.84051 0.13703,4.47311 -0.072,1.42485 0.22215,2.19384 0.12874,3.66229 -0.0356,1.418 0.20947,2.71409 0.12873,4.15362 -0.0253,1.89977 0.31546,4.00988 0.11702,5.73285 0.0681,1.28119 -0.13947,1.84948 0.26918,2.07884 -0.38039,0.46425 0.16626,2.59268 -4.8e-4,4.02824 0.0395,1.56534 0.60931,-0.57536 0.5726,-0.12354 0.0968,-0.46921 0.59018,-0.8554 0.49387,-1.60433 0.46176,-1.22794 0.63829,-2.45867 0.9938,-4.01015 0.31098,-1.14455 0.44178,-1.7106 0.64787,-2.80316 0.30718,-1.74404 0.30038,-2.23784 0.70853,-3.66611 0.26102,-1.79254 0.64146,-4.18457 0.96088,-6.23159 0.1429,-1.19446 0.52052,-2.6098 0.70504,-3.67168 0.21916,-0.5539 0.63797,0.0399 0.56624,0.89335 0.2829,0.0259 0.29615,1.35318 0.41839,1.95398 -0.0777,0.27398 0.22133,0.96924 0.11264,1.88368 0.008,0.73396 -0.02,0.2748 0.0161,1.29155 0.0645,0.13362 0.16427,1.18018 0.42886,2.33883 -0.3042,0.2929 0.65665,2.65254 0.32551,2.67388 0.58569,-1.12613 -0.37205,2.60169 0.51691,1.42932 -0.17207,1.70742 0.28299,0.25037 0.3862,1.70972 -0.087,-0.21308 0.22315,1.43272 0.17702,1.33071 0.0345,0.45828 0.15988,0.40166 0.2092,1.11177 0.003,0.23801 0.0761,1.8084 0.12874,2.93098 0.23497,1.18969 0.0814,2.11715 0.25747,3.90795 0.36718,0.44582 -0.10575,0.52763 0.25748,0.977 0.071,1.72549 0.4483,3.6784 0.77242,5.37344 -0.0602,0.58487 0.22301,0.93294 0.271,1.10189 0.10374,0.29847 0.12972,0.93016 0.37268,0.85209 0.25362,1.36255 -0.14752,-0.71148 0.25748,0.73274 -0.15209,-0.23131 0.22168,0.40964 0.19311,0.61063 0.1719,0.29775 0.1213,0.31203 0.1931,0.85486 0.0552,0.66375 0.25524,-0.64721 0.12874,-0.48849"
       id="path5334"
       inkscape:connector-curvature="0" />
    <path
       inkscape:connector-curvature="0"
       id="path5330"
       d="m 110.06666,143.62776 86.9645,0"
       style="fill:none;stroke:#000000;stroke-width:0.26458332px;stroke-linecap:butt;stroke-linejoin:miter;stroke-opacity:1" />
    <path
       style="fill:none;stroke:#000000;stroke-width:0.26458332px;stroke-linecap:butt;stroke-linejoin:miter;stroke-opacity:1"
       d="m 113.7543,147.50638 0,-49.075521"
       id="path5336"
       inkscape:connector-curvature="0" />
    <path
       sodipodi:nodetypes="cc"
       inkscape:connector-curvature="0"
       id="path5340"
       d="m 127.64053,144.48664 c 5.0943,1.17115 9.27463,1.03346 13.19132,-0.24425"
       style="fill:none;stroke:#000000;stroke-width:0.26458332px;stroke-linecap:butt;stroke-linejoin:miter;stroke-opacity:1;marker-end:url(#marker5362)" />
    <text
       xml:space="preserve"
       style="font-style:normal;font-variant:normal;font-weight:normal;font-stretch:normal;font-size:4.23333311px;line-height:1.25;font-family:sans-serif;-inkscape-font-specification:'sans-serif, Normal';text-align:start;letter-spacing:0px;word-spacing:0px;writing-mode:lr-tb;text-anchor:start;fill:#000000;fill-opacity:1;stroke:none;stroke-width:0.26458332"
       x="116.16668"
       y="150.6546"
       id="text5352"><tspan
         sodipodi:role="line"
         id="tspan5350"
         x="116.16668"
         y="150.6546"
         style="font-style:normal;font-variant:normal;font-weight:normal;font-stretch:normal;font-size:4.23333311px;font-family:sans-serif;-inkscape-font-specification:'sans-serif, Normal';text-align:start;writing-mode:lr-tb;text-anchor:start;stroke-width:0.26458332">bp0_in</tspan></text>
    <text
       id="text5356"
       y="150.6546"
       x="132.43449"
       style="font-style:normal;font-variant:normal;font-weight:normal;font-stretch:normal;font-size:4.23333311px;line-height:1.25;font-family:sans-serif;-inkscape-font-specification:'sans-serif, Normal';text-align:start;letter-spacing:0px;word-spacing:0px;writing-mode:lr-tb;text-anchor:start;fill:#000000;fill-opacity:1;stroke:none;stroke-width:0.26458332"
       xml:space="preserve"><tspan
         style="font-style:normal;font-variant:normal;font-weight:normal;font-stretch:normal;font-size:4.23333311px;font-family:sans-serif;-inkscape-font-specification:'sans-serif, Normal';text-align:start;writing-mode:lr-tb;text-anchor:start;stroke-width:0.26458332"
         y="150.6546"
         x="132.43449"
         id="tspan5354"
         sodipodi:role="line">bp0_out</tspan></text>
    <path
       inkscape:connector-curvature="0"
       id="path5358"
       d="m 140.87674,143.30607 c 0.65185,-0.68684 0.65302,0.71419 1.0299,-0.48849 0.38321,0.0602 0.81656,-0.49456 1.28737,-0.97698 0.66703,-0.2274 0.72415,-1.51741 1.27982,-1.04092 -0.70995,-0.0673 0.59929,-0.27246 0.1039,-0.82892 0.62243,0.2738 0.0845,-0.4827 0.5877,-0.70122 -0.34516,0.35066 0.22511,-0.47797 0.37216,-0.56084 0.12447,-0.80735 0.13557,0.0408 0.25319,-1.11916 0.22735,0.91764 0.56577,-1.53557 1.01461,-1.71529 0.54324,-1.25892 0.82145,-2.47597 1.28063,-3.80357 0.24226,-1.02948 0.54846,-1.86531 0.83381,-2.8112 0.004,-0.993 0.86059,-0.62475 0.4254,-1.51657 0.27181,-0.0274 0.37298,0.46872 0.34494,-0.31095 0.24143,0.57014 0.13072,-0.76435 0.19817,-0.002 0.35538,-0.64646 0.73249,-1.00309 0.91058,-0.68957 0.14488,-0.56708 0.22391,-0.0998 0.80725,-0.4477 0.17746,0.13919 1.47401,-0.48223 1.75807,-0.32821 0.25009,-0.52066 0.30807,-0.13632 0.25747,-1.22124 0.45029,-0.75821 0.43333,-2.88447 1.0299,-4.15221 -0.0516,-1.5483 0.62114,-3.38013 0.5207,-4.94717 0.72587,-0.3586 0.0648,-3.15023 0.59478,-3.55251 0.0636,-1.72153 0.12264,-3.27952 0.55727,-4.91603 -0.0561,-1.87496 0.42915,-2.77785 0.51578,-3.92586 0.34128,-0.34772 0.37566,-0.52131 0.51495,-0.48849 0.61595,0.005 0.23482,-0.10082 0.76438,0.30531 -0.16229,0.26215 0.3793,0.54009 0.27356,0.85486 0.41082,0.31665 -0.001,0.57581 0.50691,0.54955 -0.1186,0.8698 0.21582,-0.26667 0,0.73275 0.14502,-0.67089 1.3116,0.19921 1.67359,-0.4885 0.58042,-0.70296 0.58745,-0.96036 0.90115,-1.95397 0.17378,0.0376 0.41169,-1.74892 0.51495,-1.22125 0.16787,-0.56266 0.45911,-1.36285 0.77243,-1.46549 0.10609,-0.696341 0.56544,-1.048231 0.90115,-0.976981 0.4381,1.018501 0.42991,1.771101 0.71943,2.451401 -0.08,1.41681 0.40738,3.17158 0.30218,5.04786 0.27303,1.45677 0.12312,2.84051 0.13703,4.47311 -0.072,1.42485 0.22215,2.19384 0.12874,3.66229 -0.0356,1.418 0.20947,2.71409 0.12873,4.15362 -0.0253,1.89977 0.31546,4.00988 0.11702,5.73285 0.0681,1.28119 -0.13948,1.84948 0.26919,2.07884 -0.3804,0.46425 0.16626,2.59268 -4.9e-4,4.02824 0.0395,1.56534 0.60932,-0.57536 0.57261,-0.12354 0.0968,-0.46921 0.59018,-0.8554 0.49387,-1.60433 0.46176,-1.22794 0.63829,-2.45867 0.9938,-4.01015 0.31098,-1.14455 0.44178,-1.7106 0.64787,-2.80316 0.30718,-1.74404 0.30038,-2.23784 0.70853,-3.66611 0.26101,-1.79254 0.64145,-4.18457 0.96087,-6.23159 0.1429,-1.19446 0.52052,-2.6098 0.70504,-3.67168 0.21916,-0.5539 0.63797,0.0399 0.56624,0.89335 0.2829,0.0259 0.29615,1.35318 0.41839,1.95398 -0.0777,0.27398 0.22133,0.96924 0.11264,1.88368 0.008,0.73396 -0.02,0.2748 0.0161,1.29155 0.0645,0.13362 0.16427,1.18018 0.42886,2.33883 -0.3042,0.2929 0.65665,2.65254 0.32551,2.67388 0.58569,-1.12613 -0.37205,2.60169 0.51691,1.42932 -0.17207,1.70742 0.28299,0.25037 0.3862,1.70972 -0.087,-0.21308 0.22315,1.43272 0.17702,1.33071 0.0345,0.45828 0.15988,0.40166 0.2092,1.11177 0.003,0.23801 0.0761,1.8084 0.12874,2.93098 0.23497,1.18969 0.0814,2.11715 0.25747,3.90795 0.36718,0.44582 -0.10575,0.52763 0.25748,0.977 0.071,1.72549 0.4483,3.6784 0.77242,5.37344 -0.0602,0.58487 0.22301,0.93294 0.271,1.10189 0.10374,0.29847 0.12972,0.93016 0.37268,0.85209 0.25362,1.36255 -0.14752,-0.71148 0.25748,0.73274 -0.15209,-0.23131 0.22168,0.40964 0.19311,0.61063 0.1719,0.29775 0.1213,0.31203 0.1931,0.85486 0.0552,0.66375 0.25524,-0.64721 0.12874,-0.48849"
       style="fill:none;stroke:#11ff00;stroke-width:0.35277778;stroke-linecap:butt;stroke-linejoin:miter;stroke-miterlimit:4;stroke-dasharray:2.82222222, 1.41111111;stroke-dashoffset:0;stroke-opacity:1" />
    <text
       id="text6100"
       y="93.800003"
       x="14.155214"
       style="font-style:normal;font-variant:normal;font-weight:normal;font-stretch:normal;font-size:4.23333311px;line-height:1.25;font-family:sans-serif;-inkscape-font-specification:'sans-serif, Normal';text-align:start;letter-spacing:0px;word-spacing:0px;writing-mode:lr-tb;text-anchor:start;fill:#000000;fill-opacity:1;stroke:none;stroke-width:0.26458332"
       xml:space="preserve"><tspan
         style="font-style:normal;font-variant:normal;font-weight:normal;font-stretch:normal;font-size:4.23333311px;font-family:sans-serif;-inkscape-font-specification:'sans-serif, Normal';text-align:start;writing-mode:lr-tb;text-anchor:start;stroke-width:0.26458332"
         y="93.800003"
         x="14.155214"
         id="tspan6098"
         sodipodi:role="line">4 param &quot;bp0_in bp0_out, bp1_in bp1_out&quot;</tspan></text>
    <text
       xml:space="preserve"
       style="font-style:normal;font-variant:normal;font-weight:normal;font-stretch:normal;font-size:4.23333311px;line-height:1.25;font-family:sans-serif;-inkscape-font-specification:'sans-serif, Normal';text-align:start;letter-spacing:0px;word-spacing:0px;writing-mode:lr-tb;text-anchor:start;fill:#000000;fill-opacity:1;stroke:none;stroke-width:0.26458332"
       x="113.10938"
       y="93.800003"
       id="text6104"><tspan
         sodipodi:role="line"
         id="tspan6102"
         x="113.10938"
         y="93.800003"
         style="font-style:normal;font-variant:normal;font-weight:normal;font-stretch:normal;font-size:4.23333311px;font-family:sans-serif;-inkscape-font-specification:'sans-serif, Normal';text-align:start;writing-mode:lr-tb;text-anchor:start;stroke-width:0.26458332">1 or 2 param &quot;bp0_in [bp0_out]&quot;</tspan></text>
  </g>
</svg>
